<?xml version="1.0" encoding="UTF-8"?>
<svg viewBox="0 0 199.98 199.98" xmlns="http://www.w3.org/2000/svg">
 <defs>
  <style>.cls-1{fill:none;}.cls-2{clip-path:url(#a);}.cls-3{opacity:0.7;}.cls-4{fill:#ef5223;}.cls-5{fill:#ffeed7;}</style>
  <clipPath id="a" transform="translate(0)">
   <rect class="cls-1" width="199.98" height="199.98"/>
  </clipPath>
 </defs>
 <g data-name="Layer 2">
  <g class="cls-2">
   <g class="cls-3">
    <path class="cls-4" transform="translate(0)" d="M200,169.59A30.39,30.39,0,0,1,169.59,200H30.39A30.39,30.39,0,0,1,0,169.59V30.39A30.39,30.39,0,0,1,30.39,0h139.2A30.39,30.39,0,0,1,200,30.39Z"/>
   </g>
  </g>
  <path class="cls-5" transform="translate(0)" d="M58.16,129.4a17.1,17.1,0,1,1-17.1,17.1,17.1,17.1,0,0,1,17.1-17.1"/>
  <path class="cls-5" transform="translate(0)" d="m41.08 103.4a59.47 59.47 0 0 1 42.4 17.6 60.13 60.13 0 0 1 17.57 42.7h24.68c0-46.88-38-85-84.66-85z"/>
  <path class="cls-5" transform="translate(0)" d="m41.11 59.63c57.1 0 103.56 46.72 103.56 104.12h24.68c0-71-57.52-128.81-128.24-128.81z"/>
 </g>
</svg>
