<?xml version="1.0" ?><!DOCTYPE svg  PUBLIC '-//W3C//DTD SVG 1.1//EN'  'http://www.w3.org/Graphics/SVG/1.1/DTD/svg11.dtd'><svg fill-rule="evenodd" height="24pt" overflow="visible" stroke-linejoin="bevel" stroke-width="0.501" version="1.1" viewBox="0 0 24 24" width="24pt" xmlns="http://www.w3.org/2000/svg" xmlns:xlink="http://www.w3.org/1999/xlink"><defs><marker id="DefaultArrow2" markerHeight="1" markerUnits="strokeWidth" markerWidth="1" orient="auto" overflow="visible" viewBox="0 0 1 1"><g transform="scale(0.0092592592)"><path d="M -9 54 L -9 -54 L 117 0 z"/></g></marker><marker id="DefaultArrow3" markerHeight="1" markerUnits="strokeWidth" markerWidth="1" orient="auto" overflow="visible" viewBox="0 0 1 1"><g transform="scale(0.0092592592)"><path d="M -27 54 L -9 0 L -27 -54 L 135 0 z"/></g></marker><marker id="DefaultArrow4" markerHeight="1" markerUnits="strokeWidth" markerWidth="1" orient="auto" overflow="visible" viewBox="0 0 1 1"><g transform="scale(0.0092592592)"><path d="M -9,0 L -9,-45 C -9,-51.708 2.808,-56.580 9,-54 L 117,-9 C 120.916,-7.369 126.000,-4.242 126,0 C 126,4.242 120.916,7.369 117,9 L 9,54 C 2.808,56.580 -9,51.708 -9,45 z"/></g></marker><marker id="DefaultArrow5" markerHeight="1" markerUnits="strokeWidth" markerWidth="1" orient="auto" overflow="visible" viewBox="0 0 1 1"><g transform="scale(0.0092592592)"><path d="M -54, 0 C -54,29.807 -29.807,54 0,54 C 29.807,54 54,29.807 54,0 C 54,-29.807 29.807,-54 0,-54 C -29.807,-54 -54,-29.807 -54,0 z"/></g></marker><marker id="DefaultArrow6" markerHeight="1" markerUnits="strokeWidth" markerWidth="1" orient="auto" overflow="visible" viewBox="0 0 1 1"><g transform="scale(0.0092592592)"><path d="M -63,0 L 0,63 L 63,0 L 0,-63 z"/></g></marker><marker id="DefaultArrow7" markerHeight="1" markerUnits="strokeWidth" markerWidth="1" orient="auto" overflow="visible" viewBox="0 0 1 1"><g transform="scale(0.0092592592)"><path d="M 18,-54 L 108,-54 L 63,0 L 108,54 L 18, 54 L -36,0 z"/></g></marker><marker id="DefaultArrow8" markerHeight="1" markerUnits="strokeWidth" markerWidth="1" orient="auto" overflow="visible" viewBox="0 0 1 1"><g transform="scale(0.0092592592)"><path d="M -36,0 L 18,-54 L 54,-54 L 18,-18 L 27,-18 L 63,-54 L 99,-54 L 63,-18 L 72,-18 L 108,-54 L 144,-54 L 90,0 L 144,54 L 108,54 L 72,18 L 63,18 L 99,54 L 63,54 L 27,18 L 18,18 L 54,54 L 18,54 z"/></g></marker><marker id="DefaultArrow9" markerHeight="1" markerUnits="strokeWidth" markerWidth="1" orient="auto" overflow="visible" viewBox="0 0 1 1"><g transform="scale(0.0092592592)"><path d="M 0,45 L -45,0 L 0, -45 L 45, 0 z M 0, 63 L-63, 0 L 0, -63 L 63, 0 z"/></g></marker><filter id="StainedFilter"><feBlend in="SourceGraphic" in2="BackgroundImage" mode="multiply" result="blend"/><feComposite in="blend" in2="SourceAlpha" operator="in" result="comp"/></filter><filter id="BleachFilter"><feBlend in="SourceGraphic" in2="BackgroundImage" mode="screen" result="blend"/><feComposite in="blend" in2="SourceAlpha" operator="in" result="comp"/></filter><filter id="InvertTransparencyBitmapFilter"><feComponentTransfer><feFuncR amplitude="1.055" exponent=".416666666" offset="-0.055" type="gamma"/><feFuncG amplitude="1.055" exponent=".416666666" offset="-0.055" type="gamma"/><feFuncB amplitude="1.055" exponent=".416666666" offset="-0.055" type="gamma"/></feComponentTransfer><feComponentTransfer><feFuncR intercept="1" slope="-1" type="linear"/><feFuncG intercept="1" slope="-1" type="linear"/><feFuncB intercept="1" slope="-1" type="linear"/><feFuncA intercept="0" slope="1" type="linear"/></feComponentTransfer><feComponentTransfer><feFuncR amplitude="1" exponent="2.4" offset="0" type="gamma"/><feFuncG amplitude="1" exponent="2.4" offset="0" type="gamma"/><feFuncB amplitude="1" exponent="2.4" offset="0" type="gamma"/></feComponentTransfer></filter></defs><g fill="none" font-family="Times New Roman" font-size="16" id="Document" stroke="black" transform="scale(1 -1)"><g id="Spread" transform="translate(0 -24)"><g id="Icon"><path d="M 0,2.195 L 0,21.808 C 0,23.017 0.982,24 2.192,24 L 21.809,24 C 23.018,24 24.001,23.017 24.001,21.808 L 24.001,2.195 C 24.001,0.985 23.018,0.003 21.809,0.003 L 2.192,0.003 C 0.982,0.003 0,0.985 0,2.195 Z M 23.251,2.195 L 23.251,21.808 C 23.251,22.602 22.603,23.25 21.809,23.25 L 2.192,23.25 C 1.397,23.25 0.75,22.602 0.75,21.808 L 0.75,2.195 C 0.75,1.4 1.397,0.753 2.192,0.753 L 21.809,0.753 C 22.603,0.753 23.251,1.4 23.251,2.195 Z" fill="#000000" fill-rule="evenodd" marker-end="none" marker-start="none" stroke="none" stroke-miterlimit="79.8403193612775" stroke-width="0.5"/><path d="M 3.001,6.375 L 3.001,17.632 C 3.001,17.838 3.169,18.007 3.376,18.007 L 20.627,18.007 C 20.833,18.007 21.002,17.838 21.002,17.632 L 21.002,6.375 C 21.002,6.168 20.833,6 20.627,6 L 3.376,6 C 3.169,6 3.001,6.168 3.001,6.375 Z M 20.252,6.75 L 20.252,17.257 L 3.751,17.257 L 3.751,6.75 L 20.252,6.75 Z" fill="#000000" fill-rule="evenodd" marker-end="none" marker-start="none" stroke="none" stroke-miterlimit="79.8403193612775" stroke-width="0.5"/><path d="M 11.754,9.844 L 3.128,17.348 C 2.972,17.483 2.956,17.72 3.092,17.877 C 3.227,18.033 3.464,18.049 3.621,17.913 L 12.001,10.624 L 20.38,17.913 C 20.537,18.049 20.774,18.033 20.909,17.877 C 21.045,17.72 21.029,17.483 20.873,17.348 L 12.247,9.844 C 12.106,9.721 11.895,9.721 11.754,9.844 Z" fill="#000000" fill-rule="evenodd" marker-end="none" marker-start="none" stroke="none" stroke-miterlimit="79.8403193612775" stroke-width="0.5"/><path d="M 3.61,6.605 C 3.541,6.682 3.549,6.801 3.627,6.869 L 9.627,12.145 C 9.704,12.214 9.823,12.206 9.891,12.128 C 9.96,12.051 9.952,11.932 9.874,11.864 L 3.874,6.588 C 3.797,6.519 3.678,6.527 3.61,6.605 Z" fill="#000000" fill-rule="evenodd" marker-end="none" marker-start="none" stroke="none" stroke-miterlimit="79.8403193612775" stroke-width="0.5"/><path d="M 20.314,6.422 L 14.314,11.699 C 14.236,11.767 14.228,11.886 14.297,11.963 C 14.365,12.041 14.484,12.049 14.561,11.98 L 20.561,6.703 C 20.639,6.635 20.647,6.516 20.578,6.439 C 20.51,6.361 20.391,6.353 20.314,6.422 Z" fill="#000000" fill-rule="evenodd" marker-end="none" marker-start="none" stroke="none" stroke-miterlimit="79.8403193612775" stroke-width="0.5"/></g></g></g></svg>